<svg id="Layer_1" data-name="Layer 1" xmlns="http://www.w3.org/2000/svg" viewBox="0 0 442.13 141.51"><defs><style>.cls-1{fill:#1b75bb;}</style></defs><title>new slogan</title><path d="M178,114.48c0,3.69-2.24,5.64-5,5.64s-4.81-2.19-4.81-5.43c0-3.4,2.12-5.62,5-5.62S178,111.31,178,114.48Zm-8.31.18c0,2.29,1.24,4.33,3.42,4.33s3.43-2,3.43-4.44c0-2.13-1.12-4.36-3.42-4.36S169.67,112.31,169.67,114.66Z"/><path d="M180.09,120V109.24h1.5l3.44,5.42a30.45,30.45,0,0,1,1.92,3.48l0,0c-.13-1.43-.16-2.73-.16-4.4v-4.48h1.3V120h-1.4l-3.39-5.43a34.37,34.37,0,0,1-2-3.58l0,0c.08,1.35.11,2.63.11,4.41V120Z"/><path d="M190.85,109.24h1.38v9.55h4.58V120h-6Z"/><path d="M200,109.24V120h-1.38V109.24Z"/><path d="M202.77,120V109.24h1.51l3.43,5.42a29.14,29.14,0,0,1,1.93,3.48l0,0c-.13-1.43-.16-2.73-.16-4.4v-4.48h1.3V120h-1.4L206,114.52a34.37,34.37,0,0,1-2-3.58l0,0c.09,1.35.12,2.63.12,4.41V120Z"/><path d="M219.08,114.93h-4.16v3.86h4.64V120h-6V109.24h5.78v1.16h-4.4v3.38h4.16Z"/><path d="M232.51,119.6a6.86,6.86,0,0,1-2.82.51c-3,0-5.29-1.91-5.29-5.42a5.33,5.33,0,0,1,5.59-5.62,5.8,5.8,0,0,1,2.54.47l-.33,1.13a5.12,5.12,0,0,0-2.16-.44c-2.51,0-4.18,1.6-4.18,4.41,0,2.62,1.51,4.31,4.11,4.31a5.57,5.57,0,0,0,2.26-.45Z"/><path d="M235.94,109.24v4.48h5.18v-4.48h1.4V120h-1.4v-5h-5.18v5h-1.38V109.24Z"/><path d="M250.77,114.93h-4.16v3.86h4.64V120h-6V109.24H251v1.16h-4.4v3.38h4.16Z"/><path d="M262.38,115.25c-.08-1.5-.18-3.29-.16-4.63h-.05c-.36,1.26-.81,2.59-1.35,4.07l-1.89,5.19h-1l-1.74-5.09c-.5-1.51-.93-2.9-1.23-4.17h0c0,1.34-.11,3.13-.2,4.74l-.29,4.59h-1.32l.75-10.71h1.76l1.83,5.18c.44,1.32.81,2.49,1.08,3.61h.05c.27-1.08.65-2.26,1.12-3.61l1.91-5.18h1.76L264,120h-1.35Z"/><path d="M267.82,109.24V120h-1.38V109.24Z"/><path d="M278,119.6a7,7,0,0,1-2.83.51c-3,0-5.29-1.91-5.29-5.42a5.33,5.33,0,0,1,5.59-5.62,5.76,5.76,0,0,1,2.54.47l-.33,1.13a5.12,5.12,0,0,0-2.16-.44c-2.51,0-4.18,1.6-4.18,4.41,0,2.62,1.51,4.31,4.11,4.31a5.54,5.54,0,0,0,2.26-.45Z"/><path d="M281.88,116.58,280.76,120h-1.43L283,109.24h1.67L288.29,120h-1.47l-1.15-3.37Zm3.51-1.08-1.05-3.08c-.24-.7-.4-1.34-.56-2h0c-.16.64-.33,1.29-.54,1.94l-1,3.1Z"/><path d="M290.18,109.24h1.38v9.55h4.58V120h-6Z"/><path d="M302.74,110.42h-3.26v-1.18h7.93v1.18h-3.27V120h-1.4Z"/><path d="M308.91,109.38a14.71,14.71,0,0,1,2.66-.22,4.33,4.33,0,0,1,3.09.88,2.64,2.64,0,0,1,.84,2,2.8,2.8,0,0,1-2,2.73v0a2.66,2.66,0,0,1,1.57,2.16,16.58,16.58,0,0,0,.83,2.94h-1.43a13.26,13.26,0,0,1-.72-2.56c-.32-1.48-.89-2-2.14-2.08h-1.31V120h-1.38Zm1.38,4.88h1.42c1.48,0,2.41-.81,2.41-2,0-1.38-1-2-2.46-2a6.16,6.16,0,0,0-1.37.12Z"/><path d="M319.58,116.58,318.47,120H317l3.64-10.71h1.67L326,120h-1.48l-1.14-3.37Zm3.52-1.08-1.05-3.08c-.24-.7-.4-1.34-.56-2h0c-.16.64-.33,1.29-.54,1.94l-1.05,3.1Z"/><path d="M327.89,109.38a20.78,20.78,0,0,1,2.94-.22,6.1,6.1,0,0,1,4.33,1.34,4.9,4.9,0,0,1,1.51,3.84,5.65,5.65,0,0,1-1.54,4.16A6.59,6.59,0,0,1,330.4,120a22.3,22.3,0,0,1-2.51-.12Zm1.38,9.47a8.06,8.06,0,0,0,1.4.08c2.95,0,4.56-1.65,4.56-4.54,0-2.53-1.42-4.13-4.34-4.13a7.92,7.92,0,0,0-1.62.14Z"/><path d="M340.16,109.24V120h-1.38V109.24Z"/><path d="M342.89,120V109.24h1.51l3.43,5.42a27.64,27.64,0,0,1,1.92,3.48l0,0c-.13-1.43-.16-2.73-.16-4.4v-4.48h1.3V120h-1.4l-3.4-5.43a36.15,36.15,0,0,1-2-3.58l-.05,0c.08,1.35.11,2.63.11,4.41V120Z"/><path d="M361.81,119.47a10.07,10.07,0,0,1-3.29.59,5,5,0,0,1-5.5-5.4c0-3.19,2.21-5.53,5.8-5.53a6.67,6.67,0,0,1,2.67.49l-.34,1.13a5.57,5.57,0,0,0-2.36-.46,4,4,0,0,0-4.31,4.3c0,2.72,1.64,4.33,4.13,4.33a4.5,4.5,0,0,0,1.85-.29v-3.19h-2.18v-1.12h3.53Z"/><path d="M376.62,115.25c-.08-1.5-.18-3.29-.16-4.63h0c-.36,1.26-.81,2.59-1.35,4.07l-1.89,5.19h-1.05l-1.73-5.09c-.5-1.51-.93-2.9-1.24-4.17h0c0,1.34-.11,3.13-.21,4.74l-.28,4.59h-1.32l.75-10.71h1.76l1.83,5.18c.44,1.32.81,2.49,1.08,3.61h0c.27-1.08.66-2.26,1.13-3.61l1.91-5.18h1.76l.67,10.71h-1.35Z"/><path d="M382.25,116.58,381.14,120h-1.43l3.64-10.71H385L388.67,120h-1.48l-1.14-3.37Zm3.51-1.08-1-3.08c-.24-.7-.4-1.34-.56-2h0c-.16.64-.34,1.29-.54,1.94l-1,3.1Z"/><path d="M390.56,109.38a14.68,14.68,0,0,1,2.65-.22,4.35,4.35,0,0,1,3.1.88,2.64,2.64,0,0,1,.84,2,2.81,2.81,0,0,1-2,2.73v0A2.64,2.64,0,0,1,396.7,117a17.54,17.54,0,0,0,.83,2.94H396.1a14.4,14.4,0,0,1-.71-2.56c-.32-1.48-.89-2-2.15-2.08h-1.3V120h-1.38Zm1.38,4.88h1.41c1.48,0,2.42-.81,2.42-2,0-1.38-1-2-2.47-2a6,6,0,0,0-1.36.12Z"/><path d="M399.42,109.24h1.38v5.16h.05c.28-.41.57-.79.84-1.14l3.27-4h1.71l-3.87,4.54L407,120h-1.64l-3.53-5.26-1,1.18V120h-1.38Z"/><path d="M413.88,114.93h-4.16v3.86h4.64V120h-6V109.24h5.78v1.16h-4.4v3.38h4.16Z"/><path d="M418.75,110.42H415.5v-1.18h7.92v1.18h-3.27V120h-1.4Z"/><path class="cls-1" d="M123.5,36.75v68a9.82,9.82,0,0,0,14.73,8.5h0a9.8,9.8,0,0,0,4.91-8.5v-68a9.8,9.8,0,0,0-4.91-8.5h0A9.82,9.82,0,0,0,123.5,36.75Z"/><path class="cls-1" d="M49.88,135.93h0a9.81,9.81,0,0,0,14.72-8.5V110.57a9.82,9.82,0,0,0-9.81-9.82h0A9.82,9.82,0,0,0,45,110.57v16.86A9.8,9.8,0,0,0,49.88,135.93Z"/><path class="cls-1" d="M103.87,71.3a9.82,9.82,0,0,0-9.82-9.82H74.42a9.82,9.82,0,0,1-9.82-9.81V14.08a9.81,9.81,0,0,0-14.72-8.5h0A9.8,9.8,0,0,0,45,14.08V71.3a9.82,9.82,0,0,0,9.82,9.82H74.42a9.82,9.82,0,0,1,9.82,9.81v36.5A9.81,9.81,0,0,0,99,135.93h0a9.8,9.8,0,0,0,4.91-8.5Z"/><path class="cls-1" d="M94.05,41.85h0A9.81,9.81,0,0,0,103.87,32v-18A9.8,9.8,0,0,0,99,5.58h0a9.81,9.81,0,0,0-14.72,8.5V32A9.81,9.81,0,0,0,94.05,41.85Z"/><path class="cls-1" d="M25.34,100.75v-64a9.82,9.82,0,0,0-14.73-8.5h0a9.8,9.8,0,0,0-4.91,8.5v68a9.8,9.8,0,0,0,4.91,8.5h0a9.82,9.82,0,0,0,14.73-8.5Z"/><path d="M229,65.6h-8.36V44.71a5.1,5.1,0,0,0-5.1-5.1h0a5.1,5.1,0,0,0-5.1,5.1V97a5.1,5.1,0,0,0,5.1,5.1h0a5.1,5.1,0,0,0,5.1-5.1V75.81H229V97a5.1,5.1,0,0,0,5.11,5.1h0a5.1,5.1,0,0,0,5.1-5.1V44.71a5.1,5.1,0,0,0-5.1-5.1h0a5.1,5.1,0,0,0-5.11,5.1Z"/><rect x="252.51" y="39.61" width="10.21" height="62.45" rx="5.1"/><rect x="332.55" y="39.61" width="10.21" height="62.45" rx="5.1"/><path d="M420.3,45.18c-2.51-3.64-6.41-5.57-11.26-5.57s-8.75,1.93-11.24,5.54a19.24,19.24,0,0,0-3.15,11.33V85.19a19.34,19.34,0,0,0,3.12,11.31c2.51,3.64,6.41,5.56,11.27,5.56s8.75-1.92,11.24-5.53a19.29,19.29,0,0,0,3.14-11.34V56.48C423.42,51.92,422.37,48.1,420.3,45.18Zm-7.08,39.94c0,6.74-2.6,6.74-4.15,6.74s-4.21,0-4.21-6.74V56.48c0-6.66,2.64-6.66,4.21-6.66s4.15,0,4.15,6.66Z"/><path d="M309.79,42.78,297.64,75.07,285.48,42.78a4.89,4.89,0,0,0-4.58-3.17h0A4.9,4.9,0,0,0,276,44.5V97a5.1,5.1,0,0,0,5.11,5.1h0a5.1,5.1,0,0,0,5.1-5.1V71.3l11.43,30.76L309.06,71.3V97a5.1,5.1,0,0,0,5.11,5.1h0a5.1,5.1,0,0,0,5.1-5.1V44.51a4.9,4.9,0,0,0-4.9-4.9h0A4.9,4.9,0,0,0,309.79,42.78Z"/><path d="M374.61,83.49v1.63c0,6.74-2.59,6.74-4.14,6.74s-4.22,0-4.22-6.74V56.48c0-6.66,2.64-6.66,4.22-6.66s4.14,0,4.14,6.66v1.7h10.21v-1.7a19.22,19.22,0,0,0-3.13-11.3c-2.51-3.64-6.4-5.57-11.26-5.57s-8.75,1.93-11.24,5.54A19.24,19.24,0,0,0,356,56.48V85.19a19.27,19.27,0,0,0,3.13,11.31c2.51,3.64,6.4,5.56,11.26,5.56s8.75-1.92,11.24-5.53a19.3,19.3,0,0,0,3.15-11.34v-1.7Z"/><path d="M191.28,69l-9.6-6.61a6.89,6.89,0,0,1-3.18-4.6V56.48c0-6.66,2.64-6.66,4.22-6.66s4.14,0,4.14,6.66v1.7h10.21v-1.7a19.22,19.22,0,0,0-3.13-11.3,12.74,12.74,0,0,0-9.89-5.5c-.2,0-.41,0-.62,0s-.49,0-.75,0h-.15c-.21,0-.42,0-.63,0-.38,0-.75,0-1.12.07l-.18,0a14.33,14.33,0,0,0-3.07.71l-.12,0a11.72,11.72,0,0,0-1.31.56c-.33.16-.65.36-1,.55-.11.07-.23.12-.34.2a12.57,12.57,0,0,0-3.46,3.4,19.3,19.3,0,0,0-3.15,11.34c0,5.71,2.2,10.27,6.43,13.24q5.81,3.87,8.87,5.81c2.34,2.14,3.47,5.26,3.47,9.52a9.66,9.66,0,0,1-1.19,5.19,3.15,3.15,0,0,1-3.11,1.54c-1.61,0-4.31,0-4.31-6.74V81.41l-10.16.25v3.53a19,19,0,0,0,3.16,11.25,13.13,13.13,0,0,0,11.3,5.62,13.28,13.28,0,0,0,11.26-5.55,18.81,18.81,0,0,0,3.26-11.29C197.23,78.4,195.24,72.93,191.28,69Z"/><path d="M429.92,26.59a6.45,6.45,0,0,1,2.51.49A6.51,6.51,0,0,1,436,30.6a6.58,6.58,0,0,1,.48,2.5,6.42,6.42,0,0,1-.48,2.49,6.07,6.07,0,0,1-1.4,2.07,6.86,6.86,0,0,1-2.15,1.45,6.46,6.46,0,0,1-2.48.5,6.6,6.6,0,0,1-6-4,6.46,6.46,0,0,1,0-5,6.75,6.75,0,0,1,1.43-2.14,6.17,6.17,0,0,1,2.07-1.4A6.42,6.42,0,0,1,429.92,26.59Zm5.87,6.51a5.88,5.88,0,0,0-.44-2.24A5.82,5.82,0,0,0,434.1,29a5.93,5.93,0,0,0-1.92-1.28,6,6,0,0,0-4.5,0,5.61,5.61,0,0,0-1.87,1.26,6.17,6.17,0,0,0-1.29,1.93,5.73,5.73,0,0,0-.45,2.23,5.82,5.82,0,0,0,.44,2.22,6,6,0,0,0,3.19,3.18,5.65,5.65,0,0,0,2.22.45,5.78,5.78,0,0,0,2.24-.45,6.3,6.3,0,0,0,1.94-1.3,5.68,5.68,0,0,0,1.26-1.86A6,6,0,0,0,435.79,33.1Zm-5.68-3.87a4.28,4.28,0,0,1,2.36.51,1.75,1.75,0,0,1,.75,1.57,1.89,1.89,0,0,1-.49,1.33,2.11,2.11,0,0,1-1.31.63l1.69,3.5h-1.17l-1.62-3.36h-1.9v3.36h-1V29.23Zm-.19.7h-1.5v2.79h1.5a3.54,3.54,0,0,0,1.78-.32,1.26,1.26,0,0,0,.48-1.13,1.1,1.1,0,0,0-.55-1A3.52,3.52,0,0,0,429.92,29.93Z"/></svg>